<?xml version="1.0" encoding="UTF-8" standalone="yes"?>
<!DOCTYPE svg PUBLIC "-//W3C//DTD SVG 1.0//EN" "http://www.w3.org/TR/2001/REC-SVG-20010904/DTD/svg10.dtd">
<svg height="700" onload="if(self.makeDraggable){makeDraggable(evt)}" width="700" xmlns="http://www.w3.org/2000/svg" xmlns:svg="http://www.w3.org/2000/svg" xmlns:xlink="http://www.w3.org/1999/xlink">
	<g id="mundialis_osm:background" opacity="0.5">
		<image height="700" id="background_map_1" opacity="1" style="mix-blend-mode:normal" width="700" x="0" xlink:href="https://ows.terrestris.de/osm/service?service=WMS&amp;version=1.3.0&amp;request=GetMap&amp;format=image/jpeg&amp;exception=inimage&amp;crs=EPSG:4326&amp;styles=&amp;layers=OSM-WMS&amp;bbox=51.2997482,12.3566647,51.3408178,12.4223313&amp;width=700&amp;height=700" y="0" />
	</g>
	<g id="trk1:typeface_G" opacity="1">
		<polyline fill="none" id="trk1:p859" points=" 178.908,280.272 179.377,280.272 179.463,282.829 178.194,282.761 177.597,282.727 176.158,282.675 175.806,284.295 169.570,298.288 168.995,300.009 165.466,310.082 163.174,316.610 162.876,317.514 162.716,318.230 160.616,328.303 159.998,331.268 158.495,338.870 158.313,340.950 158.303,344.069 157.855,351.790 157.386,359.800 157.311,361.863 156.917,369.925 156.618,376.129 156.576,377.220 156.555,377.901 156.203,391.861 156.160,393.514 156.203,395.014 156.427,403.740 156.565,408.922 156.597,410.013 156.768,414.427 157.109,421.057 157.215,424.432 157.247,425.625 157.343,427.841 157.386,428.915 157.418,429.631 157.951,442.005 157.983,442.755 157.983,442.755 158.217,445.311 158.484,449.555 159.188,461.128 159.848,465.389 162.055,478.224 162.236,479.246 163.260,484.820 164.304,490.069 164.976,494.671 165.338,497.109 167.673,505.903 168.259,508.085 168.259,508.085 168.259,508.085 168.568,509.159 169.783,512.977 171.553,517.357 172.651,520.203 172.896,520.664 173.269,518.738 174.154,515.994 174.197,514.920 174.367,510.812 175.060,510.812 175.007,513.590 174.922,515.636 174.890,516.300 174.815,516.999 174.804,518.124 174.751,520.203 174.815,520.715 174.922,521.243 175.028,521.754 175.209,522.266 175.764,523.612 176.052,524.175 176.393,524.788 178.642,527.106 179.015,527.430 179.239,527.618 179.996,528.180 180.923,530.038 181.104,530.396 181.797,531.419 182.629,532.220 183.172,532.987 184.142,534.384 187.074,538.560 188.428,540.452 192.766,546.503 195.271,550.252 195.527,550.644 197.425,553.576 200.218,557.871 201.369,559.678 202.403,561.331 202.872,562.013 203.853,563.445 206.059,566.666 206.368,567.143 208.138,569.751 213.958,577.216 216.261,579.995 216.261,579.995 221.452,586.693 222.134,587.579 225.386,591.704 228.786,595.965 230.566,598.300 231.920,598.982 233.039,600.362 236.419,604.675 239.851,609.958 243.678,617.083 248.614,628.196 253.634,639.751 257.397,647.779 258.740,650.575 259.050,650.967 259.593,651.665 262.866,658.125 263.964,660.000 276.788,657.358 288.268,654.955 288.652,654.887 288.652,654.887 288.652,654.887 289.068,654.802 298.278,653.438 302.883,652.381 306.795,651.597 309.716,650.967 312.999,650.183 319.235,648.904 323.435,648.052 325.855,645.427 330.535,640.229 332.187,639.530 335.908,641.285 341.302,643.859 341.344,643.876 342.655,644.336 342.964,644.456 344.276,644.865 345.672,645.018 349.211,644.473 352.004,644.081 357.931,643.041 357.462,645.257 366.789,642.854 374.273,640.962 379.283,639.769 382.918,639.002 389.111,638.218 397.660,637.246 399.697,637.041 408.896,636.138 418.000,635.610 418.330,635.593 418.692,635.576 421.997,635.388 422.647,635.371 423.170,635.354 424.172,635.337 427.029,635.235 428.148,635.201 429.587,635.150 437.049,634.996 440.439,634.928 452.175,636.223 458.720,637.127 461.609,637.536 463.496,637.791 474.369,639.411 473.804,632.695 473.047,624.889 470.564,599.357 470.787,597.260 469.807,587.511 469.284,585.755 468.528,578.137 468.986,572.103 470.393,566.888 472.131,561.791 461.918,557.854 461.631,557.752 462.270,555.553 463.315,552.826 464.285,549.468 465.010,546.247 466.460,537.946 466.396,534.231 465.372,523.459 464.679,520.220 462.249,511.323 459.723,504.932 459.264,503.773 466.257,500.194 472.131,497.194 475.926,495.114 485.839,488.603 490.263,485.484 499.367,479.127 502.394,476.996 509.558,471.849 512.915,469.497 517.958,465.901 518.789,465.287 522.552,462.543 524.759,460.787 525.270,459.475 525.430,458.657 526.390,458.759 527.658,458.810 528.735,458.691 529.694,458.214 532.690,456.424 532.860,455.674 532.743,454.276 532.679,453.612 532.668,451.941 533.031,447.987 534.171,430.960 534.598,425.915 535.269,426.460 536.623,427.705 536.367,431.113 535.685,439.840 536.367,431.113 536.623,427.705 536.751,426.222 536.847,425.097 538.318,405.104 538.915,396.820 539.491,387.395 540.450,384.140 542.017,383.884 542.539,383.799 543.840,383.594 542.518,381.822 541.036,379.844 539.118,377.254 538.425,376.401 536.399,374.254 535.333,372.754 533.201,369.822 531.879,368.067 528.831,363.942 523.725,357.005 523.373,356.511 522.627,355.386 522.019,354.449 521.763,354.057 521.092,353.051 518.565,349.165 515.410,344.290 511.977,338.478 509.536,334.336 509.099,333.621 506.242,328.848 505.869,328.252 505.368,327.314 504.654,326.070 504.217,325.184 503.194,322.951 502.021,320.411 494.314,306.912 490.210,299.498 488.547,295.663 488.099,294.760 485.178,289.749 484.038,287.789 483.526,286.971 480.936,282.709 480.456,281.823 480.456,281.823 478.857,282.335 478.431,282.471 477.119,282.880 475.680,283.323 473.762,284.397 471.885,285.147 470.105,285.794 468.304,287.243 465.713,287.618 463.187,287.652 458.795,287.806 448.839,288.283 446.963,288.368 443.274,288.539 438.360,288.811 435.194,289.135 428.755,290.056 426.623,289.936 423.244,290.567 421.102,290.993 418.586,291.419 417.786,291.555 415.708,291.930 415.409,291.999 415.111,292.101 410.335,294.044 409.109,294.726 405.165,296.993 402.074,298.782 401.157,299.311 394.569,303.111 393.951,303.486 391.488,304.884 389.666,303.163 389.133,302.651 387.267,300.947 383.867,297.828 380.818,295.646 379.357,294.282 376.213,291.487 374.603,292.527 371.714,295.441 370.051,296.993 367.983,298.867 366.789,299.975 365.894,300.776 365.350,300.862 360.202,300.231 359.711,300.470 359.711,300.470 359.349,300.827 348.209,311.719 346.802,312.878 346.482,313.150 344.734,314.582 340.779,316.576 326.857,320.684 324.214,321.451 316.922,323.394 319.641,332.666 320.024,333.961 319.289,334.575 314.161,336.620 314.353,337.098 314.780,338.171 315.067,338.683 315.206,339.041 315.313,339.313 315.505,339.808 316.411,342.109 316.624,342.637 320.962,340.813 322.913,339.961 325.472,338.870 327.529,338.018 327.966,339.330 327.966,339.330 327.966,339.330 328.211,340.677 327.422,341.631 323.691,343.864 323.457,344.904 326.431,354.227 328.083,359.187 329.426,362.067 331.665,365.834 331.665,365.834 331.665,365.834 337.197,362.988 339.713,370.027 340.459,369.771 342.208,369.175 343.924,368.578 345.406,368.067 346.621,367.641 347.676,367.283 350.672,366.260 354.882,364.811 361.534,362.510 366.448,360.823 367.802,360.346 370.264,359.460 369.017,357.397 366.821,353.460 365.969,351.926 365.905,351.824 363.911,348.227 357.217,337.336 352.729,329.649 351.631,327.774 353.070,327.161 360.319,324.076 369.199,320.292 375.083,317.718 377.716,316.406 378.622,315.963 379.741,315.349 385.178,324.826 387.470,328.763 389.857,332.632 389.069,333.280 389.367,333.808 389.666,334.234 389.793,334.405 392.693,338.239 400.347,348.364 405.165,360.550 405.805,364.317 405.901,367.965 406.796,370.368 406.316,375.123 406.252,375.890 405.943,379.180 405.623,382.725 405.400,385.026 404.760,391.639 403.609,403.536 403.278,407.149 403.172,410.251 402.969,414.649 401.381,431.727 400.411,437.249 399.888,442.124 399.814,442.789 399.771,443.624 400.059,446.624 400.102,446.862 400.102,446.862 400.155,447.118 400.421,448.345 401.327,452.538 401.850,454.276 402.564,456.714 404.291,462.713 404.621,463.855 407.393,473.451 408.256,476.434 409.088,478.991 409.173,479.263 411.348,485.126 411.870,486.950 414.471,495.898 416.838,504.114 418.234,509.159 418.618,510.863 419.236,513.624 419.886,519.096 419.908,519.402 419.950,519.743 420.281,522.743 415.996,524.788 415.537,525.010 414.461,525.521 412.382,526.527 409.333,528.010 407.638,528.828 401.008,531.504 394.718,533.396 388.983,534.640 388.056,534.844 385.689,535.185 382.769,535.492 377.737,535.850 372.642,536.242 368.367,536.600 365.937,536.787 365.926,536.549 365.883,535.611 368.666,535.322 365.883,535.611 365.926,536.549 365.937,536.787 362.035,537.111 360.212,537.248 350.778,537.981 344.212,538.679 342.506,538.816 336.462,538.935 336.057,538.918 331.345,538.645 325.781,537.793 321.080,536.753 317.487,535.952 315.281,535.475 307.105,533.754 307.179,533.515 307.563,532.356 301.711,531.078 307.563,532.356 307.179,533.515 307.105,533.754 301.156,532.492 294.377,531.061 293.087,530.788 286.062,529.288 283.354,528.896 281.062,528.555 280.455,528.470 266.554,526.476 261.384,525.777 256.161,525.078 251.524,524.464 251.215,524.430 245.074,523.595 244.147,523.476 243.635,523.391 242.484,523.237 241.994,523.169 240.075,522.896 240.469,521.005 240.288,520.016 240.171,519.351 239.755,517.016 239.723,516.743 239.361,513.471 238.753,507.966 238.167,502.546 237.655,498.063 236.557,489.234 235.481,479.706 233.285,462.185 232.592,456.032 231.867,450.015 231.291,445.260 231.195,444.357 231.067,443.283 230.822,440.709 230.822,440.709 230.737,439.363 230.684,438.476 230.758,435.391 230.918,428.097 230.993,423.239 231.185,412.603 231.323,403.468 231.451,398.082 231.472,397.008 231.504,395.678 231.579,391.588 231.771,379.742 232.069,362.579 232.187,357.482 232.251,353.699 232.336,349.046 232.347,348.551 232.389,346.506 232.432,343.148 232.474,341.307 232.485,340.864 232.581,335.137 232.688,333.109 232.869,320.360 232.933,316.542 233.210,309.810 233.306,306.265 233.285,301.799 233.700,283.323 233.807,282.011 236.216,271.989 236.813,269.602 236.813,269.602 239.723,256.802 241.034,249.916 241.940,244.479 242.079,243.678 243.124,237.491 243.785,233.622 244.350,230.350 244.499,229.480 244.968,226.736 245.309,224.810 246.503,216.765 247.260,212.027 247.494,210.578 248.390,204.988 248.582,203.761 248.933,202.909 249.669,201.136 250.522,197.335 251.097,194.148 251.780,187.671 252.025,186.768 252.963,183.870 254.018,181.620 256.385,176.609 256.459,176.439 256.630,176.098 256.790,175.757 256.982,175.314 257.088,175.092 257.195,174.854 257.856,173.405 258.474,172.041 258.708,171.530 259.337,170.150 259.945,168.786 260.073,168.513 260.190,168.258 260.467,167.644 260.595,167.354 260.723,167.065 262.066,164.355 264.817,158.167 265.648,156.020 265.947,154.673 266.128,153.548 266.821,153.787 267.844,154.162 269.230,154.247 273.707,154.503 275.668,154.622 286.467,155.304 290.347,155.543 292.660,155.679 292.916,155.696 293.844,155.747 300.751,156.190 302.617,156.361 302.894,156.395 303.811,156.497 311.731,157.366 313.575,157.571 321.613,158.440 324.768,158.798 328.691,159.241 330.045,159.378 333.680,159.787 335.545,160.025 341.248,161.440 343.764,162.071 344.190,162.173 348.390,163.281 350.394,163.809 357.355,165.650 359.871,166.315 362.238,166.928 363.527,167.218 364.391,167.440 370.552,169.059 371.981,169.434 376.991,170.712 382.300,172.076 384.325,173.098 384.591,173.354 383.600,174.445 384.591,173.354 385.359,172.553 387.054,170.627 391.371,165.735 395.592,161.184 397.426,159.207 401.370,154.827 402.980,153.088 403.918,152.032 406.572,149.969 407.084,149.628 407.670,149.287 407.372,148.981 406.519,148.128 405.901,147.498 406.668,146.833 407.329,146.271 407.329,146.271 407.329,146.271 406.668,146.833 408.672,148.912 409.472,148.691 410.975,148.350 412.392,148.180 413.746,148.043 414.343,147.992 415.207,147.958 417.083,147.839 419.513,147.736 422.221,147.651 424.161,147.549 436.708,146.816 438.200,146.731 443.253,146.458 448.039,146.219 446.888,133.402 446.536,130.317 445.769,121.625 445.428,116.597 445.108,115.455 444.927,114.824 444.585,110.938 443.956,105.143 442.613,104.734 443.871,101.495 444.521,99.638 443.690,99.365 441.931,95.905 442.038,95.019 442.166,93.962 442.709,92.019 444.575,86.855 448.039,76.798 448.498,75.486 436.846,73.662 436.846,73.662 436.846,73.662 424.523,71.924 420.100,71.225 416.784,70.697 413.991,70.271 407.404,69.418 404.781,68.975 404.408,68.890 402.500,68.515 400.997,68.242 399.760,68.004 398.588,67.799 396.509,67.407 391.297,66.231 389.378,65.754 387.949,65.413 385.732,64.782 384.890,64.458 384.485,64.305 377.268,61.868 370.488,58.987 368.516,58.152 367.674,57.709 366.779,57.198 359.924,53.669 356.833,52.306 352.857,52.153 339.852,50.312 332.571,48.897 325.376,47.926 323.062,47.704 308.927,46.681 305.740,46.460 305.004,47.176 303.533,45.625 303.533,45.625 305.772,45.505 305.740,46.460 305.004,47.176 304.397,47.772 304.226,47.943 303.896,48.266 303.352,48.812 302.787,49.374 300.655,48.829 299.195,48.403 297.436,47.994 291.029,46.340 286.179,45.079 280.028,42.608 272.183,40.000 271.596,40.545 266.544,53.346 265.872,53.976 264.102,57.879 263.420,57.692 262.610,57.368 261.789,57.027 261.341,56.857 260.904,56.686 260.393,56.482 259.774,56.175 259.146,55.868 258.613,55.612 258.410,55.919 256.683,59.362 250.170,58.357 244.371,56.891 242.303,52.374 239.478,53.090 237.655,54.522 234.777,57.470 230.875,60.606 229.021,62.021 228.946,62.072 228.658,62.209 228.115,62.532 209.886,67.390 206.422,68.293 196.892,70.645 195.271,72.503 194.301,73.799 194.397,74.293 194.376,75.333 193.150,78.827 191.871,82.099 191.466,83.207 190.762,85.031 189.035,86.974 188.588,87.485 188.513,87.570 188.172,87.979 187.639,88.610 187.138,89.377 187.138,89.377 188.001,89.241 187.969,89.292 187.117,92.496 187.085,92.786 186.978,92.769 186.477,92.684 186.189,92.667 186.114,93.297 185.059,101.172 184.963,102.024 184.334,107.700 184.260,108.296 184.228,108.603 183.823,112.694 183.727,113.307 183.386,114.824 182.415,119.239 181.914,122.409 181.808,123.039 181.659,123.977 181.232,125.783 180.891,131.919 181.008,133.811 181.083,135.209 181.158,136.385 181.360,139.811 181.648,144.583 181.701,145.845 181.936,149.577 181.989,150.873 181.914,153.889 181.808,160.741 181.787,161.917 181.755,164.167 181.541,166.212 181.477,166.843 180.582,175.587 180.582,175.587 179.772,183.887 179.399,187.330 178.812,188.711 178.386,189.716 178.269,191.966 177.768,201.664 177.682,203.812 177.746,208.755 178.333,213.169 179.431,220.839 180.966,232.071 181.190,234.798 181.264,237.508 181.339,239.571 181.808,240.508 182.000,241.105 181.797,248.911 181.637,252.115 181.200,262.256 180.774,263.279 180.102,264.898 179.910,266.722 179.548,271.205 179.548,272.142 179.431,277.681 179.388,279.931 179.377,280.272 178.908,280.272" stroke="#cc0000" stroke-linejoin="round" stroke-width="2" />
	</g>
	<g class="draggable" id="trk1:label" opacity="1" x="180.908" y="278.272">
		<text fill="#cc0000" font-family="Verdana" font-size="11" id="trk1:name" opacity="1" text-anchor="middle" x="180.908" y="278.272">typeface G</text>
	</g>
	<g id="Waypoints" />
	<g class="draggable" id="map:legend" x="6" y="686">
		<text fill="#cc0000" font-family="Verdana" font-size="11" font-weight="bold" id="map:legend:trktrk1_label" text-anchor="start" x="6" y="686">typeface G</text>
		<text fill="#000000" font-family="Verdana" font-size="11" font-weight="bold" id="map:legend:header" text-anchor="start" x="6" y="672.25">Tracks:</text>
	</g>
	<g class="draggable" id="Scale" x="350" y="350">
		<line fill="none" id="scale_line" stroke="#000000" stroke-width="1" x1="273.187107979456" x2="426.812892020544" y1="681" y2="681" />
		<line fill="none" id="scale_end1" stroke="#000000" stroke-width="1" x1="273.187107979456" x2="273.187107979456" y1="679" y2="683" />
		<line fill="none" id="scale_end2" stroke="#000000" stroke-width="1" x1="426.812892020544" x2="426.812892020544" y1="679" y2="683" />
		<text fill="#000000" font-family="Verdana" font-size="11" id="scale_text" text-anchor="middle" x="350" y="679">1 km</text>
	</g>
	<g id="map:logo" x="350" y="697">
		<rect fill="#FFFFFF" height="11" opacity="0.6" width="160" x="270" y="688" />
		<a href="https://www.gpsvisualizer.com/" target="_blank">
			<text fill="#000000" font-family="Verdana" font-size="9" text-anchor="middle" transform="translate(350,697) rotate(0) translate(-350,-697)" x="350" y="697">created by GPSVisualizer.com</text>
		</a>
	</g>
	<rect fill="none" height="699" id="image_border" opacity="0" stroke="#000000" stroke-width="1" width="699" x="0.5" y="0.5" />
	<style type="text/css">.draggable { cursor:move; }</style>
	<script type="text/javascript"><![CDATA[
		function makeDraggable(evt) {
			var svg = evt.target; svg.addEventListener('mousedown', startDrag); svg.addEventListener('mousemove', drag); svg.addEventListener('mouseup', endDrag); svg.addEventListener('mouseleave', endDrag); svg.addEventListener('touchstart', startDrag); svg.addEventListener('touchmove', drag); svg.addEventListener('touchend', endDrag); svg.addEventListener('touchleave', endDrag); svg.addEventListener('touchcancel', endDrag); var selectedElement, offset, transform, bbox, minX, maxX, minY, maxY;
			function getMousePosition(evt) { var CTM = svg.getScreenCTM(); if(evt.touches) { evt = evt.touches[0]; } return { x:(evt.clientX-CTM.e)/CTM.a, y:(evt.clientY-CTM.f)/CTM.d }; }
			function startDrag(evt) { if(evt.target.classList && evt.target.classList.contains('draggable')) { selectedElement = evt.target; initialiseDragging(evt); } else if(evt.target.parentNode) { if(evt.target.parentNode.classList && evt.target.parentNode.classList.contains('draggable')) { selectedElement = evt.target.parentNode; initialiseDragging(evt); } else if(evt.target.parentNode.parentNode && evt.target.parentNode.parentNode.classList && evt.target.parentNode.parentNode.classList.contains('draggable')) { selectedElement = evt.target.parentNode.parentNode; initialiseDragging(evt); } } }
			function initialiseDragging(evt) { offset = getMousePosition(evt); var transforms = selectedElement.transform.baseVal; if(transforms.length === 0 || transforms.getItem(0).type !== SVGTransform.SVG_TRANSFORM_TRANSLATE) { var translate = svg.createSVGTransform(); translate.setTranslate(0,0); selectedElement.transform.baseVal.insertItemBefore(translate,0); } transform = transforms.getItem(0); offset.x -= transform.matrix.e; offset.y -= transform.matrix.f; }
			function drag(evt) { if(selectedElement) { evt.preventDefault(); var coord = getMousePosition(evt); var dx = coord.x-offset.x; var dy = coord.y-offset.y; transform.setTranslate(dx, dy); } }
			function endDrag(evt) { selectedElement = false; }
		}
]]></script>
	<!-- 		debugging stuff:
		key = 20211016065401-08061
		min. track = 
		max. track = 
		colorize min = 
		colorize max = 
		colorize range = 0
		upper left (data) = 51.338471,12.371314
		lower right (data) = 51.302095,12.407682
		upper left (drawing) = 51.3408178387097,12.3566647168117
		lower right (drawing) = 51.2997481612903,12.4223312831883
		center = 51.320283,12.389498
		width,height (pixels) = 700,700
		width,height (degrees) = 0.0656665663765601,0.0410696774193511
		scale = 18514, resolution = 6.531 m/pixel
		bgmap = https://ows.terrestris.de/osm/service?service=WMS&version=1.3.0&request=GetMap&format=image/jpeg&exception=inimage&crs=EPSG:4326&styles=&layers=OSM-WMS&bbox=51.2997482,12.3566647,51.3408178,12.4223313&width=700&height=700
		input form = https://www.gpsvisualizer.com/map_input?form=svg&units=metric
 -->
	<!-- 
	Generated using the Perl SVG Module V2.59
	by Ronan Oger
	Info: http://www.roitsystems.com/
 -->
</svg>