<?xml version="1.0" encoding="UTF-8" standalone="yes"?>
<!DOCTYPE svg PUBLIC "-//W3C//DTD SVG 1.0//EN" "http://www.w3.org/TR/2001/REC-SVG-20010904/DTD/svg10.dtd">
<svg height="700" onload="if(self.makeDraggable){makeDraggable(evt)}" width="700" xmlns="http://www.w3.org/2000/svg" xmlns:svg="http://www.w3.org/2000/svg" xmlns:xlink="http://www.w3.org/1999/xlink">
	<g id="mundialis_osm:background" opacity="0.5">
		<image height="700" id="background_map_1" opacity="1" style="mix-blend-mode:normal" width="700" x="0" xlink:href="https://ows.terrestris.de/osm/service?service=WMS&amp;version=1.3.0&amp;request=GetMap&amp;format=image/jpeg&amp;exception=inimage&amp;crs=EPSG:4326&amp;styles=&amp;layers=OSM-WMS&amp;bbox=51.3074253,12.3598986,51.3384477,12.4095034&amp;width=700&amp;height=700" y="0" />
	</g>
	<g id="trk1:typeface_E" opacity="1">
		<polyline fill="none" id="trk1:p534" points=" 188.282,554.760 188.225,557.490 187.633,581.296 187.590,582.807 187.604,594.518 186.673,599.618 186.645,604.808 186.447,610.020 186.334,614.104 186.123,622.250 186.109,622.769 186.038,626.447 187.463,626.627 188.169,626.718 189.354,626.876 190.483,627.011 191.146,627.101 192.529,627.282 193.263,627.372 199.162,628.229 203.861,628.884 204.284,628.929 205.187,629.064 211.128,629.899 211.693,629.967 214.501,630.373 225.113,631.862 226.454,632.065 234.102,633.126 242.936,634.457 250.415,635.585 252.264,635.879 253.604,636.082 260.519,637.075 262.000,637.345 263.637,637.594 265.839,637.932 268.393,638.271 269.353,638.406 272.175,638.767 274.715,639.128 275.364,639.218 276.888,639.421 277.566,639.534 278.793,639.692 286.921,640.798 287.331,640.843 293.469,641.655 300.384,642.580 307.228,643.505 325.629,646.146 326.434,646.258 329.468,646.710 333.052,647.229 342.352,649.214 344.059,649.575 353.034,651.471 360.908,653.140 371.732,655.419 374.653,656.051 379.408,657.112 385.632,658.488 392.998,659.616 399.235,659.977 399.771,660.000 407.773,659.842 410.030,659.662 418.723,658.736 431.212,657.766 433.625,657.586 438.790,657.157 442.007,656.909 447.666,656.435 454.411,655.916 461.072,655.442 464.938,655.036 468.071,654.585 469.299,654.314 476.891,652.667 477.441,652.509 485.217,650.162 493.994,646.619 496.238,645.536 500.274,643.573 503.025,642.242 504.451,641.565 505.058,641.272 510.730,638.564 512.156,637.910 512.833,637.594 513.962,637.075 513.539,633.036 513.454,632.607 513.383,632.201 509.658,618.955 504.902,602.484 501.473,590.637 501.008,588.606 500.062,583.778 498.975,579.739 498.058,576.354 496.901,572.360 496.294,570.149 492.470,556.723 490.480,549.954 489.281,545.599 489.027,544.674 487.503,538.739 487.418,538.401 487.418,538.401 485.993,538.265 485.188,538.198 484.017,538.108 482.282,537.972 481.265,537.882 479.586,537.746 476.834,537.498 471.345,537.092 464.755,536.551 463.231,536.415 457.205,535.964 442.304,534.745 426.174,533.437 424.735,533.346 424.664,533.098 424.227,531.451 416.818,531.383 403.934,531.632 370.433,531.767 334.633,531.925 327.012,529.962 324.797,529.443 324.430,530.413 321.805,529.826 319.745,529.646 312.365,529.646 307.454,529.691 305.760,529.691 284.565,529.849 282.815,529.849 272.330,529.917 265.557,529.939 263.793,529.962 262.593,529.962 259.926,529.962 259.926,529.962 259.813,528.179 259.743,527.006 259.841,522.922 260.053,513.264 260.152,506.833 260.406,492.753 260.589,480.659 260.759,473.528 260.787,472.107 260.829,470.347 260.928,464.931 261.182,449.249 261.577,426.527 261.732,419.780 261.817,414.771 261.930,408.611 261.944,407.956 262.000,405.249 262.000,405.249 262.000,405.249 262.240,405.271 264.950,405.452 265.952,405.520 268.591,405.565 269.663,405.587 269.691,403.128 295.346,403.579 306.409,403.760 309.867,403.805 309.853,401.526 308.216,401.481 308.216,401.481 308.851,371.583 308.851,361.045 304.180,346.807 297.251,346.672 297.251,346.672 286.413,346.491 263.482,346.085 263.186,346.063 263.186,346.063 263.736,321.603 263.877,319.865 267.067,306.598 267.857,303.439 271.709,286.493 273.445,277.377 274.644,270.179 274.828,269.118 276.211,260.927 276.930,256.775 277.086,255.805 277.834,251.473 278.031,250.322 278.652,246.689 279.104,244.139 280.684,233.489 281.686,227.216 281.997,225.298 283.182,217.897 283.436,216.273 283.902,215.144 284.875,212.798 286.004,207.766 286.766,203.546 287.669,194.972 287.994,193.776 289.236,189.940 290.633,186.961 293.766,180.328 293.864,180.102 294.090,179.651 294.302,179.199 294.556,178.613 294.697,178.319 294.838,178.003 295.713,176.085 296.531,174.280 296.842,173.603 297.674,171.776 298.479,169.971 298.648,169.609 298.803,169.271 299.170,168.459 299.340,168.075 299.509,167.692 301.287,164.104 304.928,155.913 306.028,153.070 306.424,151.287 306.663,149.798 307.581,150.114 308.935,150.610 310.770,150.723 316.697,151.062 319.293,151.220 333.588,152.122 338.725,152.438 341.787,152.619 342.126,152.641 343.353,152.709 352.498,153.295 354.967,153.521 355.334,153.566 356.548,153.702 367.033,154.852 369.474,155.123 380.114,156.274 384.291,156.748 389.484,157.334 391.276,157.515 396.088,158.057 398.558,158.372 406.107,160.245 409.438,161.080 410.002,161.216 415.562,162.682 418.215,163.382 427.430,165.819 430.760,166.699 433.893,167.511 435.601,167.895 436.744,168.188 444.900,170.332 446.791,170.828 446.509,171.911 448.103,172.295 458.899,175.070 459.788,176.131 459.647,176.582 459.788,176.131 458.899,175.070 448.103,172.295 446.509,171.911 446.791,170.828 453.423,172.520 460.451,174.325 463.132,175.679 463.485,176.018 464.501,174.957 466.745,172.407 472.460,165.932 478.048,159.907 480.475,157.289 485.697,151.490 487.827,149.189 489.069,147.790 492.583,145.060 493.260,144.608 494.036,144.157 493.641,143.751 492.512,142.623 491.694,141.788 492.710,140.908 493.585,140.163 494.290,139.486 494.841,138.945 495.292,138.538 495.913,137.952 495.490,137.500 485.584,126.466 480.419,120.555 480.419,120.555 478.570,118.343 463.527,100.675 462.751,99.728 461.255,98.035 460.536,97.201 459.647,96.163 454.651,91.086 450.531,86.911 446.862,83.211 446.269,82.624 443.517,80.074 442.642,81.112 442.360,81.451 441.330,82.647 440.596,83.527 440.159,84.046 438.169,86.054 430.704,93.726 429.617,94.493 427.797,93.568 420.417,86.595 412.585,78.247 407.575,72.921 405.853,71.680 404.372,71.003 399.602,69.492 393.379,67.551 391.065,66.829 386.238,65.317 384.051,64.618 383.642,64.505 378.124,62.767 376.191,62.158 374.258,61.526 370.603,60.376 369.107,59.924 351.609,54.509 341.463,51.372 341.096,51.260 341.096,51.260 341.096,51.260 329.397,47.627 328.635,47.401 325.404,46.408 320.140,44.671 314.919,43.046 311.857,42.076 311.631,42.008 310.996,41.828 305.831,40.000 305.492,40.970 303.361,43.949 301.047,46.814 297.801,50.425 294.767,52.929 291.663,54.689 290.802,55.344 289.066,56.652 286.343,58.503 283.633,60.895 280.331,63.016 276.324,64.663 273.149,65.746 270.213,66.536 269.480,66.491 269.889,63.016 269.988,62.226 268.957,61.007 268.125,60.985 267.476,60.985 266.728,60.985 265.119,60.985 262.508,60.985 261.803,60.985 260.787,60.985 260.688,60.962 259.827,62.023 259.616,63.850 258.416,63.715 252.969,63.061 252.052,62.993 249.399,62.925 246.788,62.970 243.430,63.151 242.484,63.377 239.224,67.506 237.559,67.754 236.035,67.980 231.661,65.295 223.631,66.603 218.876,67.416 215.305,68.047 213.090,68.431 210.028,68.973 208.221,69.650 206.316,69.920 205.837,69.853 204.736,69.717 202.647,69.446 202.534,69.424 202.295,69.401 202.026,69.356 201.885,69.334 201.222,69.221 200.841,69.198 200.277,69.198 199.246,67.867 199.444,67.371 200.079,65.520 200.220,65.137 200.742,65.046 202.097,64.843 202.097,64.843 203.240,64.663 203.198,64.731 202.069,68.973 202.026,69.356 201.885,69.334 201.222,69.221 200.841,69.198 200.742,70.033 199.345,80.458 199.218,81.586 198.386,89.100 198.287,89.890 198.245,90.296 197.708,95.711 197.581,96.524 197.130,98.532 195.846,104.376 195.182,108.573 195.041,109.408 194.844,110.649 194.279,113.041 193.828,121.164 193.983,123.669 194.082,125.519 194.180,127.076 194.449,131.611 194.830,137.929 194.900,139.599 195.211,144.541 195.281,146.255 195.182,150.249 195.041,159.320 195.013,160.877 194.971,163.856 194.688,166.563 194.604,167.398 193.418,178.974 192.346,189.963 191.852,194.521 191.076,196.348 190.511,197.680 190.356,200.658 189.693,213.497 189.580,216.340 189.665,222.884 190.441,228.728 191.894,238.882 193.926,253.752 194.223,257.362 194.322,260.950 194.420,263.680 195.041,264.921 195.295,265.711 195.027,276.045 194.815,280.288 194.237,293.713 193.672,295.067 192.783,297.211 192.529,299.625 192.050,305.560 192.050,306.801 191.894,314.134 191.838,317.112 191.824,317.564 191.937,320.948 192.036,324.198 192.275,328.350 192.219,339.654 191.626,342.926 191.443,344.573 191.443,345.905 191.781,364.001 191.189,367.634 191.034,369.168 191.019,370.770 191.612,374.742 190.864,385.798 190.850,386.701 190.751,395.591 190.751,396.358 190.638,399.901 190.511,403.421 190.455,407.167 190.342,414.049 190.243,420.367 190.060,425.150 190.074,427.068 190.455,429.641 190.088,447.692 190.130,450.355 190.018,457.711 189.876,466.330 189.354,469.647 189.227,471.159 189.213,471.746 189.199,475.311 189.284,491.083 189.397,494.400 189.284,499.703 188.959,503.246 188.437,510.353 188.310,512.113 188.282,513.151 188.084,522.651 188.014,526.555 188.014,527.119 188.028,530.548 188.056,534.023 188.070,536.596 188.070,536.799 188.522,541.853 188.282,554.760" stroke="#cc0000" stroke-linejoin="round" stroke-width="2" />
	</g>
	<g class="draggable" id="trk1:label" opacity="1" x="190.282" y="552.76">
		<text fill="#cc0000" font-family="Verdana" font-size="11" id="trk1:name" opacity="1" text-anchor="middle" x="190.282" y="552.76">typeface E</text>
	</g>
	<g id="Waypoints" />
	<g class="draggable" id="map:legend" x="6" y="686">
		<text fill="#cc0000" font-family="Verdana" font-size="11" font-weight="bold" id="map:legend:trktrk1_label" text-anchor="start" x="6" y="686">typeface E</text>
		<text fill="#000000" font-family="Verdana" font-size="11" font-weight="bold" id="map:legend:header" text-anchor="start" x="6" y="672.25">Tracks:</text>
	</g>
	<g class="draggable" id="Scale" x="350" y="350">
		<line fill="none" id="scale_line" stroke="#000000" stroke-width="1" x1="248.309649519987" x2="451.690350480013" y1="681" y2="681" />
		<line fill="none" id="scale_end1" stroke="#000000" stroke-width="1" x1="248.309649519987" x2="248.309649519987" y1="679" y2="683" />
		<line fill="none" id="scale_end2" stroke="#000000" stroke-width="1" x1="451.690350480013" x2="451.690350480013" y1="679" y2="683" />
		<text fill="#000000" font-family="Verdana" font-size="11" id="scale_text" text-anchor="middle" x="350" y="679">1 km</text>
	</g>
	<g id="map:logo" x="350" y="697">
		<rect fill="#FFFFFF" height="11" opacity="0.6" width="160" x="270" y="688" />
		<a href="https://www.gpsvisualizer.com/" target="_blank">
			<text fill="#000000" font-family="Verdana" font-size="9" text-anchor="middle" transform="translate(350,697) rotate(0) translate(-350,-697)" x="350" y="697">created by GPSVisualizer.com</text>
		</a>
	</g>
	<rect fill="none" height="699" id="image_border" opacity="0" stroke="#000000" stroke-width="1" width="699" x="0.5" y="0.5" />
	<style type="text/css">.draggable { cursor:move; }</style>
	<script type="text/javascript"><![CDATA[
		function makeDraggable(evt) {
			var svg = evt.target; svg.addEventListener('mousedown', startDrag); svg.addEventListener('mousemove', drag); svg.addEventListener('mouseup', endDrag); svg.addEventListener('mouseleave', endDrag); svg.addEventListener('touchstart', startDrag); svg.addEventListener('touchmove', drag); svg.addEventListener('touchend', endDrag); svg.addEventListener('touchleave', endDrag); svg.addEventListener('touchcancel', endDrag); var selectedElement, offset, transform, bbox, minX, maxX, minY, maxY;
			function getMousePosition(evt) { var CTM = svg.getScreenCTM(); if(evt.touches) { evt = evt.touches[0]; } return { x:(evt.clientX-CTM.e)/CTM.a, y:(evt.clientY-CTM.f)/CTM.d }; }
			function startDrag(evt) { if(evt.target.classList && evt.target.classList.contains('draggable')) { selectedElement = evt.target; initialiseDragging(evt); } else if(evt.target.parentNode) { if(evt.target.parentNode.classList && evt.target.parentNode.classList.contains('draggable')) { selectedElement = evt.target.parentNode; initialiseDragging(evt); } else if(evt.target.parentNode.parentNode && evt.target.parentNode.parentNode.classList && evt.target.parentNode.parentNode.classList.contains('draggable')) { selectedElement = evt.target.parentNode.parentNode; initialiseDragging(evt); } } }
			function initialiseDragging(evt) { offset = getMousePosition(evt); var transforms = selectedElement.transform.baseVal; if(transforms.length === 0 || transforms.getItem(0).type !== SVGTransform.SVG_TRANSFORM_TRANSLATE) { var translate = svg.createSVGTransform(); translate.setTranslate(0,0); selectedElement.transform.baseVal.insertItemBefore(translate,0); } transform = transforms.getItem(0); offset.x -= transform.matrix.e; offset.y -= transform.matrix.f; }
			function drag(evt) { if(selectedElement) { evt.preventDefault(); var coord = getMousePosition(evt); var dx = coord.x-offset.x; var dy = coord.y-offset.y; transform.setTranslate(dx, dy); } }
			function endDrag(evt) { selectedElement = false; }
		}
]]></script>
	<!-- 		debugging stuff:
		key = 20211016065532-08061
		min. track = 
		max. track = 
		colorize min = 
		colorize max = 
		colorize range = 0
		upper left (data) = 51.336675,12.373082
		lower right (data) = 51.309198,12.396320
		upper left (drawing) = 51.3384477096774,12.3598985917322
		lower right (drawing) = 51.3074252903226,12.4095034082678
		center = 51.3229365,12.384701
		width,height (pixels) = 700,700
		width,height (degrees) = 0.0496048165355134,0.0310224193548336
		scale = 13985, resolution = 4.933 m/pixel
		bgmap = https://ows.terrestris.de/osm/service?service=WMS&version=1.3.0&request=GetMap&format=image/jpeg&exception=inimage&crs=EPSG:4326&styles=&layers=OSM-WMS&bbox=51.3074253,12.3598986,51.3384477,12.4095034&width=700&height=700
		input form = https://www.gpsvisualizer.com/map_input?form=svg&units=metric
 -->
	<!-- 
	Generated using the Perl SVG Module V2.59
	by Ronan Oger
	Info: http://www.roitsystems.com/
 -->
</svg>